<?xml version="1.0" encoding="UTF-8" standalone="no"?>
<!-- Created with Inkscape (http://www.inkscape.org/) -->

<svg
   xmlns:dc="http://purl.org/dc/elements/1.1/"
   xmlns:cc="http://creativecommons.org/ns#"
   xmlns:rdf="http://www.w3.org/1999/02/22-rdf-syntax-ns#"
   xmlns:svg="http://www.w3.org/2000/svg"
   xmlns="http://www.w3.org/2000/svg"
   xmlns:sodipodi="http://sodipodi.sourceforge.net/DTD/sodipodi-0.dtd"
   xmlns:inkscape="http://www.inkscape.org/namespaces/inkscape"
   version="1.1"
   id="svg33415"
   xml:space="preserve"
   width="800"
   height="800"
   viewBox="0 0 800 800"
   sodipodi:docname="I-love-UK-publicdomainvectors.org.svg"
   inkscape:version="0.92.4 (5da689c313, 2019-01-14)"><metadata
     id="metadata33421"><rdf:RDF><cc:Work
         rdf:about=""><dc:format>image/svg+xml</dc:format><dc:type
           rdf:resource="http://purl.org/dc/dcmitype/StillImage" /><dc:title></dc:title></cc:Work></rdf:RDF></metadata><defs
     id="defs33419"><clipPath
       clipPathUnits="userSpaceOnUse"
       id="clipPath33431"><path
         d="M 0,600 H 600 V 0 H 0 Z"
         id="path33429"
         inkscape:connector-curvature="0" /></clipPath></defs><sodipodi:namedview
     pagecolor="#ffffff"
     bordercolor="#666666"
     borderopacity="1"
     objecttolerance="10"
     gridtolerance="10"
     guidetolerance="10"
     inkscape:pageopacity="0"
     inkscape:pageshadow="2"
     inkscape:window-width="797"
     inkscape:window-height="480"
     id="namedview33417"
     showgrid="false"
     inkscape:zoom="0.295"
     inkscape:cx="400"
     inkscape:cy="400"
     inkscape:window-x="0"
     inkscape:window-y="0"
     inkscape:window-maximized="0"
     inkscape:current-layer="g33423" /><g
     id="g33423"
     inkscape:groupmode="layer"
     inkscape:label="I-love-UK-publicdomainvectors.org"
     transform="matrix(1.3333333,0,0,-1.3333333,0,800)"><g
       id="g33425"><g
         id="g33427"
         clip-path="url(#clipPath33431)"><path
           d="m 470.641,482.468 c 1.067,0.651 1.657,1.787 1.657,2.954 0,0.6 -0.155,1.208 -0.485,1.761 -0.965,1.629 -3.061,2.176 -4.701,1.23 0,0 -22.986,-13.271 -26.241,-15.15 3.373,2.021 26.629,15.955 26.629,15.955 1.08,0.648 1.68,1.794 1.68,2.97 0,0.595 -0.154,1.198 -0.477,1.749 -0.963,1.635 -3.065,2.19 -4.709,1.241 0,0 -51.355,-29.651 -118.898,-68.647 v -20.635 c 65.157,39.74 125.545,76.572 125.545,76.572"
           style="fill:#273376;fill-opacity:1;fill-rule:nonzero;stroke:none"
           id="path33433"
           inkscape:connector-curvature="0" /><path
           d="m 61.632,241.106 c -1.067,-0.651 -1.658,-1.789 -1.658,-2.955 0,-0.601 0.156,-1.208 0.485,-1.762 0.495,-0.834 1.289,-1.378 2.164,-1.59 l 14.264,7.133 c 0.882,0.508 1.811,1.045 2.78,1.603 H 65.615 c -2.584,-1.575 -3.983,-2.429 -3.983,-2.429"
           style="fill:#273376;fill-opacity:1;fill-rule:nonzero;stroke:none"
           id="path33435"
           inkscape:connector-curvature="0" /><path
           d="m 515.906,243.535 h -16.041 c -2.755,-1.592 -5.623,-3.246 -8.573,-4.95 l 9.403,-4.701 c 5.431,3.447 10.576,6.711 15.211,9.651"
           style="fill:#273376;fill-opacity:1;fill-rule:nonzero;stroke:none"
           id="path33437"
           inkscape:connector-curvature="0" /><path
           d="m 444.378,425.677 c 36.097,22.089 61.339,37.536 61.339,37.536 1.064,0.651 1.653,1.787 1.653,2.952 0,0.601 -0.156,1.21 -0.486,1.763 -0.965,1.627 -3.062,2.174 -4.699,1.228 0,0 -77.516,-44.754 -157.089,-90.695 v -2.425 z"
           style="fill:#273376;fill-opacity:1;fill-rule:nonzero;stroke:none"
           id="path33439"
           inkscape:connector-curvature="0" /><path
           d="m 216.393,404.519 v 11.368 c -11.552,-6.67 -24.131,-13.933 -36.99,-21.357 l 11.872,-5.936 c 8.54,5.415 17.011,10.785 25.118,15.925"
           style="fill:#273376;fill-opacity:1;fill-rule:nonzero;stroke:none"
           id="path33441"
           inkscape:connector-curvature="0" /><path
           d="m 156.658,173.565 c -1.075,-0.647 -1.671,-1.79 -1.671,-2.961 0,-0.597 0.155,-1.203 0.481,-1.754 0.964,-1.634 3.063,-2.185 4.705,-1.237 0,0 22.64,13.072 56.22,32.458 v 9.578 c -28.785,-17.386 -59.735,-36.084 -59.735,-36.084"
           style="fill:#273376;fill-opacity:1;fill-rule:nonzero;stroke:none"
           id="path33443"
           inkscape:connector-curvature="0" /><path
           d="m 519.274,234.462 c 0.998,0.666 1.54,1.762 1.54,2.881 0,0.624 -0.167,1.253 -0.519,1.82 -0.985,1.585 -3.05,2.105 -4.666,1.171 0,0 -5.267,-3.041 -12.916,-7.458 l 8.099,-4.051 c 5.213,3.473 8.462,5.637 8.462,5.637"
           style="fill:#273376;fill-opacity:1;fill-rule:nonzero;stroke:none"
           id="path33445"
           inkscape:connector-curvature="0" /><path
           d="m 530.596,471.794 c 0,0 -14.964,-8.639 -38.892,-22.454 l 43.284,21.643 c -1.053,1.289 -2.907,1.669 -4.392,0.811"
           style="fill:#273376;fill-opacity:1;fill-rule:nonzero;stroke:none"
           id="path33447"
           inkscape:connector-curvature="0" /><path
           d="m 571.755,380.084 c 1.063,0.652 1.649,1.787 1.649,2.95 0,0.601 -0.156,1.211 -0.486,1.765 -0.969,1.625 -3.061,2.171 -4.699,1.225 0,0 -9.492,-5.481 -23.875,-13.785 h 14.63 c 8.106,4.975 12.781,7.845 12.781,7.845"
           style="fill:#273376;fill-opacity:1;fill-rule:nonzero;stroke:none"
           id="path33449"
           inkscape:connector-curvature="0" /><path
           d="m 503.9,476.139 c 1.066,0.652 1.656,1.787 1.656,2.953 0,0.6 -0.158,1.209 -0.486,1.762 -0.966,1.627 -3.061,2.175 -4.701,1.229 0,0 -80.876,-46.693 -155.273,-89.647 v -13.367 c 80.65,49.298 158.804,97.07 158.804,97.07"
           style="fill:#273376;fill-opacity:1;fill-rule:nonzero;stroke:none"
           id="path33451"
           inkscape:connector-curvature="0" /><path
           d="m 481.992,475.819 c 1.071,0.65 1.663,1.789 1.663,2.958 0,0.599 -0.155,1.206 -0.481,1.759 -0.966,1.63 -3.064,2.179 -4.704,1.232 0,0 -64.097,-37.006 -133.374,-77.003 v -12.12 c 64.092,38.94 136.896,83.174 136.896,83.174"
           style="fill:#273376;fill-opacity:1;fill-rule:nonzero;stroke:none"
           id="path33453"
           inkscape:connector-curvature="0" /><path
           d="m 213.827,136.175 c -1.074,-0.651 -1.669,-1.791 -1.669,-2.962 0,-0.599 0.155,-1.205 0.481,-1.756 0.786,-1.33 2.322,-1.926 3.754,-1.595 v 7.864 c -1.629,-0.985 -2.566,-1.551 -2.566,-1.551"
           style="fill:#273376;fill-opacity:1;fill-rule:nonzero;stroke:none"
           id="path33455"
           inkscape:connector-curvature="0" /><path
           d="m 178.633,161.095 c -1.071,-0.651 -1.664,-1.791 -1.664,-2.959 0,-0.599 0.156,-1.205 0.483,-1.758 0.965,-1.63 3.062,-2.18 4.703,-1.233 0,0 13.226,7.636 34.238,19.768 v 9.095 c -21.253,-12.897 -37.76,-22.913 -37.76,-22.913"
           style="fill:#273376;fill-opacity:1;fill-rule:nonzero;stroke:none"
           id="path33457"
           inkscape:connector-curvature="0" /><path
           d="m 57.925,372.239 h 17.604 c 0.702,0.406 1.408,0.813 2.117,1.223 l -9.932,4.966 c -3.313,-2.095 -6.589,-4.166 -9.789,-6.189"
           style="fill:#273376;fill-opacity:1;fill-rule:nonzero;stroke:none"
           id="path33459"
           inkscape:connector-curvature="0" /><path
           d="m 124.604,191.031 c 0,0 15.151,8.748 36.35,20.986 l -40.637,-20.318 c 1.071,-1.18 2.854,-1.496 4.287,-0.668"
           style="fill:#273376;fill-opacity:1;fill-rule:nonzero;stroke:none"
           id="path33461"
           inkscape:connector-curvature="0" /><path
           d="m 207.383,141.816 c -1.062,-0.652 -1.648,-1.786 -1.648,-2.948 0,-0.602 0.157,-1.212 0.488,-1.766 0.968,-1.624 3.061,-2.17 4.698,-1.225 0,0 2.096,1.21 5.472,3.159 v 8.318 c -5.754,-3.536 -9.01,-5.538 -9.01,-5.538"
           style="fill:#273376;fill-opacity:1;fill-rule:nonzero;stroke:none"
           id="path33463"
           inkscape:connector-curvature="0" /><path
           d="m 158.375,184.904 c -1.069,-0.65 -1.659,-1.788 -1.659,-2.955 0,-0.6 0.157,-1.208 0.484,-1.76 0.966,-1.629 3.062,-2.177 4.702,-1.231 0,0 28.15,16.253 54.491,31.46 v 9.844 c -33.737,-20.56 -58.018,-35.358 -58.018,-35.358"
           style="fill:#273376;fill-opacity:1;fill-rule:nonzero;stroke:none"
           id="path33465"
           inkscape:connector-curvature="0" /><path
           d="m 169.473,166.69 c -1.06,-0.652 -1.646,-1.785 -1.646,-2.947 0,-0.602 0.158,-1.213 0.488,-1.767 0.968,-1.623 3.061,-2.168 4.698,-1.224 0,0 19.198,11.085 43.38,25.045 v 9.766 c -28.266,-17.395 -46.92,-28.873 -46.92,-28.873"
           style="fill:#273376;fill-opacity:1;fill-rule:nonzero;stroke:none"
           id="path33467"
           inkscape:connector-curvature="0" /><path
           d="m 488.854,239.805 c 2,1.26 3.971,2.505 5.916,3.73 h -13.377 z"
           style="fill:#273376;fill-opacity:1;fill-rule:nonzero;stroke:none"
           id="path33469"
           inkscape:connector-curvature="0" /><path
           d="m 216.393,452.234 v 9.318 c -13.362,-7.715 -32.981,-19.042 -49.079,-28.336 16.401,10.368 34.809,22.007 49.079,31.028 v 9.311 c -1.213,-0.701 -2.228,-1.287 -2.925,-1.69 0.503,0.314 1.581,0.983 2.925,1.817 v 8.533 c -15.873,-9.164 -50.338,-29.063 -84.294,-48.667 35.37,22.962 71.398,46.35 84.294,54.722 v 8.335 c -7.019,-4.053 -40.156,-23.183 -68.835,-39.741 22.601,14.523 53.421,34.326 53.421,34.326 1.026,0.659 1.588,1.772 1.588,2.911 0,0.613 -0.163,1.235 -0.505,1.796 -0.978,1.603 -3.054,2.133 -4.68,1.195 0,0 -26.767,-15.454 -44.385,-25.626 12.828,8.3 35.512,22.976 35.512,22.976 1.021,0.661 1.58,1.771 1.58,2.906 0,0.615 -0.165,1.238 -0.508,1.801 -0.978,1.6 -3.054,2.128 -4.678,1.19 0,0 -31.57,-18.227 -61.83,-35.699 21.966,14.893 46.995,31.864 46.995,31.864 0.984,0.667 1.518,1.755 1.518,2.864 0,0.573 -0.162,1.145 -0.458,1.674 h -7.009 c -7.893,-4.557 -35.077,-20.251 -62.222,-35.922 21.404,15.351 43.577,31.254 43.577,31.254 0.939,0.673 1.443,1.733 1.443,2.813 0,0.637 -0.179,1.281 -0.546,1.855 h -6.606 c -5.211,-3.008 -20.022,-11.56 -34.801,-20.092 8.786,7.007 19.335,15.42 19.335,15.42 0.852,0.68 1.302,1.686 1.302,2.705 0,0.673 -0.196,1.351 -0.601,1.945 -0.006,0.008 -0.014,0.015 -0.019,0.022 h -6.34 L 80.84,479.218 c -1.653,-0.955 -2.22,-3.069 -1.265,-4.723 0.926,-1.605 2.94,-2.147 4.57,-1.307 -8.929,-7.121 -19.551,-15.591 -19.551,-15.591 -0.851,-0.68 -1.301,-1.686 -1.301,-2.705 0,-0.673 0.196,-1.351 0.602,-1.946 1.018,-1.494 3.018,-1.951 4.584,-1.046 0,0 10.725,6.192 16.017,9.247 -5.318,-3.814 -10.683,-7.661 -15.744,-11.291 l 11.005,-5.502 c 2.448,1.413 4.881,2.818 7.245,4.183 -2.188,-1.483 -4.406,-2.988 -6.626,-4.493 l 69.609,-34.805 c 25.437,16.469 50.141,32.463 66.408,42.995"
           style="fill:#273376;fill-opacity:1;fill-rule:nonzero;stroke:none"
           id="path33471"
           inkscape:connector-curvature="0" /><path
           d="m 216.393,390.666 v 11.664 c -7.862,-4.54 -16.111,-9.302 -24.407,-14.092 l 11.594,-5.797 c 4.37,2.806 8.654,5.554 12.813,8.225"
           style="fill:#273376;fill-opacity:1;fill-rule:nonzero;stroke:none"
           id="path33473"
           inkscape:connector-curvature="0" /><path
           d="m 199.632,159.817 c -1.062,-0.652 -1.65,-1.786 -1.65,-2.949 0,-0.602 0.159,-1.211 0.488,-1.766 0.967,-1.624 3.06,-2.17 4.699,-1.225 0,0 5.616,3.242 13.224,7.636 v 8.591 c -10.541,-6.469 -16.761,-10.287 -16.761,-10.287"
           style="fill:#273376;fill-opacity:1;fill-rule:nonzero;stroke:none"
           id="path33475"
           inkscape:connector-curvature="0" /><path
           d="m 205.253,153.81 c -1.075,-0.65 -1.67,-1.792 -1.67,-2.963 0,-0.598 0.153,-1.203 0.48,-1.755 0.965,-1.634 3.063,-2.185 4.706,-1.237 0,0 2.739,1.582 7.624,4.403 v 8.275 c -6.496,-3.92 -11.14,-6.723 -11.14,-6.723"
           style="fill:#273376;fill-opacity:1;fill-rule:nonzero;stroke:none"
           id="path33477"
           inkscape:connector-curvature="0" /><path
           d="m 216.393,419.432 v 27.494 c -18.52,-10.693 -41.867,-24.172 -65.801,-37.99 l 27.911,-13.956 c 13.332,8.604 26.336,16.995 37.89,24.452"
           style="fill:#273376;fill-opacity:1;fill-rule:nonzero;stroke:none"
           id="path33479"
           inkscape:connector-curvature="0" /><path
           d="m 216.393,376.297 v 11.372 c -3.523,-2.035 -7.129,-4.116 -10.798,-6.234 l 10.565,-5.284 c 0.079,0.049 0.156,0.098 0.233,0.146"
           style="fill:#273376;fill-opacity:1;fill-rule:nonzero;stroke:none"
           id="path33481"
           inkscape:connector-curvature="0" /><path
           d="m 547.377,401.504 c 1.073,0.65 1.669,1.791 1.669,2.963 0,0.484 -0.132,0.965 -0.343,1.426 l -56.398,-28.2 c -3.071,-1.772 -6.226,-3.594 -9.448,-5.454 h 16.072 c 25.024,15.116 48.448,29.265 48.448,29.265"
           style="fill:#273376;fill-opacity:1;fill-rule:nonzero;stroke:none"
           id="path33483"
           inkscape:connector-curvature="0" /><path
           d="m 182.873,222.977 c -27.115,-16.383 -49.041,-29.63 -49.041,-29.63 -1.074,-0.649 -1.669,-1.79 -1.669,-2.961 0,-0.599 0.155,-1.203 0.481,-1.755 0.964,-1.634 3.062,-2.184 4.705,-1.236 0,0 53.2,30.714 77.167,44.551 C 193.292,219.165 143.205,189 143.205,189 c -1.077,-0.648 -1.675,-1.792 -1.675,-2.964 0,-0.598 0.155,-1.202 0.48,-1.753 0.964,-1.634 3.063,-2.186 4.706,-1.238 0,0 29.512,17.038 69.677,40.227 v 16.464 z"
           style="fill:#273376;fill-opacity:1;fill-rule:nonzero;stroke:none"
           id="path33485"
           inkscape:connector-curvature="0" /><path
           d="m 548.688,391.92 c 1.061,0.653 1.646,1.786 1.646,2.948 0,0.602 -0.157,1.212 -0.487,1.767 -0.969,1.623 -3.063,2.168 -4.699,1.223 0,0 -21.152,-12.212 -44.373,-25.619 h 15.93 c 19.711,12.129 31.983,19.681 31.983,19.681"
           style="fill:#273376;fill-opacity:1;fill-rule:nonzero;stroke:none"
           id="path33487"
           inkscape:connector-curvature="0" /><path
           d="m 24.958,372.239 h 14.78 c 1.41,0.814 2.576,1.488 3.317,1.915 -0.528,-0.327 -1.667,-1.034 -3.083,-1.915 h 14.773 c 3.736,2.157 7.706,4.45 11.763,6.792 l -17.561,8.781 C 38.928,381.308 30.57,375.883 24.958,372.239"
           style="fill:#273376;fill-opacity:1;fill-rule:nonzero;stroke:none"
           id="path33489"
           inkscape:connector-curvature="0" /><path
           d="m 21.457,384.058 c -1.026,-0.66 -1.589,-1.773 -1.589,-2.912 0,-0.613 0.164,-1.234 0.506,-1.796 0.978,-1.603 3.055,-2.133 4.681,-1.194 0,0 7.892,4.556 20.051,11.576 l -8.333,4.166 c -8.998,-5.781 -15.316,-9.84 -15.316,-9.84"
           style="fill:#273376;fill-opacity:1;fill-rule:nonzero;stroke:none"
           id="path33491"
           inkscape:connector-curvature="0" /><path
           d="m 551.645,379.349 c 1.071,0.65 1.664,1.789 1.664,2.959 0,0.599 -0.156,1.205 -0.483,1.757 -0.965,1.631 -3.062,2.181 -4.703,1.233 0,0 -8.471,-4.89 -22.619,-13.059 h 14.424 c 7.257,4.404 11.717,7.11 11.717,7.11"
           style="fill:#273376;fill-opacity:1;fill-rule:nonzero;stroke:none"
           id="path33493"
           inkscape:connector-curvature="0" /><path
           d="M 395.013,175.013 C 378.094,164.278 359.58,152.531 345.096,143.34 v -9.452 c 19.745,11.401 50.13,28.943 80.441,46.445 -23.289,-15.512 -50.546,-33.668 -50.546,-33.668 -0.997,-0.665 -1.54,-1.76 -1.54,-2.88 0,-0.624 0.168,-1.253 0.521,-1.82 0.984,-1.585 3.049,-2.104 4.665,-1.171 l 76.276,44.034 -109.817,54.907 v -13.17 c 1.136,0.655 2.27,1.31 3.403,1.964 -1.133,-0.696 -2.267,-1.393 -3.403,-2.091 v -42.741 c 9.717,5.61 19.604,11.319 29.427,16.99 -9.761,-6.074 -19.696,-12.255 -29.427,-18.31 v -22.365 c 16.158,9.329 33.594,19.396 50.954,29.417 -17.385,-10.967 -35.049,-22.11 -50.954,-32.145 v -11.091 c 15.526,8.964 32.859,18.972 49.917,28.82"
           style="fill:#273376;fill-opacity:1;fill-rule:nonzero;stroke:none"
           id="path33495"
           inkscape:connector-curvature="0" /><path
           d="m 39.764,428.378 6.602,-3.302 v 10e-4 z"
           style="fill:#ffffff;fill-opacity:1;fill-rule:nonzero;stroke:none"
           id="path33497"
           inkscape:connector-curvature="0" /><path
           d="m 68.259,414.13 10.24,-5.119 z"
           style="fill:#ffffff;fill-opacity:1;fill-rule:nonzero;stroke:none"
           id="path33499"
           inkscape:connector-curvature="0" /><path
           d="m 345.096,243.535 v -3.8 l 109.817,-54.907 33.394,19.278 -7.41,3.706 c -4.356,-2.514 -9.12,-5.266 -12.257,-7.076 3.715,2.475 7.534,5.018 11.323,7.541 l -10.638,5.321 c -2.301,-1.327 -4.533,-2.616 -6.646,-3.836 2.083,1.32 4.189,2.659 6.31,4.004 l -11.085,5.542 c -6.043,-3.489 -12.123,-6.997 -18.112,-10.456 5.744,3.624 11.521,7.269 17.255,10.885 l -47.597,23.798 z"
           style="fill:#ffffff;fill-opacity:1;fill-rule:nonzero;stroke:none"
           id="path33501"
           inkscape:connector-curvature="0" /><path
           d="m 48.947,387.812 17.561,-8.781 c 4.424,2.554 8.943,5.163 13.358,7.713 l -18.397,9.197 c -4.386,-2.848 -8.585,-5.573 -12.522,-8.129"
           style="fill:#ffffff;fill-opacity:1;fill-rule:nonzero;stroke:none"
           id="path33503"
           inkscape:connector-curvature="0" /><path
           d="m 111.765,198.421 c 0,0 16.942,9.781 43.844,25.313 l -48.443,-24.222 c 1.001,-1.512 3.009,-2.01 4.599,-1.091"
           style="fill:#ffffff;fill-opacity:1;fill-rule:nonzero;stroke:none"
           id="path33505"
           inkscape:connector-curvature="0" /><path
           d="m 34.653,403.133 c -1.021,-0.66 -1.58,-1.771 -1.58,-2.906 0,-0.615 0.165,-1.239 0.509,-1.801 0.978,-1.6 3.053,-2.128 4.677,-1.19 0,0 3.988,2.303 9.57,5.525 l -7.756,3.879 c -3.301,-2.136 -5.42,-3.507 -5.42,-3.507"
           style="fill:#ffffff;fill-opacity:1;fill-rule:nonzero;stroke:none"
           id="path33507"
           inkscape:connector-curvature="0" /><path
           d="m 49.84,423.339 8.322,-4.16 -8.322,4.161 z"
           style="fill:#ffffff;fill-opacity:1;fill-rule:nonzero;stroke:none"
           id="path33509"
           inkscape:connector-curvature="0" /><path
           d="m 420.363,372.239 c 17.199,10.537 33.561,20.562 48.411,29.661 l -59.322,-29.661 z"
           style="fill:#ffffff;fill-opacity:1;fill-rule:nonzero;stroke:none"
           id="path33511"
           inkscape:connector-curvature="0" /><path
           d="m 510.812,228.825 -8.099,4.051 c -3.947,-2.278 -8.532,-4.925 -13.354,-7.71 l 9.116,-4.558 c 4.709,3.138 8.941,5.956 12.337,8.217"
           style="fill:#ffffff;fill-opacity:1;fill-rule:nonzero;stroke:none"
           id="path33513"
           inkscape:connector-curvature="0" /><path
           d="m 58.89,418.814 8.972,-4.486 v 0.001 z"
           style="fill:#ffffff;fill-opacity:1;fill-rule:nonzero;stroke:none"
           id="path33515"
           inkscape:connector-curvature="0" /><path
           d="m 479.061,372.239 c 46.394,28.274 83.689,51.003 83.689,51.003 1.068,0.65 1.658,1.788 1.658,2.955 0,0.599 -0.156,1.207 -0.483,1.76 -0.968,1.629 -3.064,2.177 -4.702,1.231 0,0 -60.177,-34.743 -91.686,-52.936 21.194,12.766 71.256,42.914 71.256,42.914 1.076,0.648 1.673,1.792 1.673,2.964 0,0.598 -0.154,1.203 -0.48,1.753 -0.962,1.635 -3.063,2.187 -4.706,1.238 0,0 -53.684,-30.995 -91.594,-52.882 z"
           style="fill:#ffffff;fill-opacity:1;fill-rule:nonzero;stroke:none"
           id="path33517"
           inkscape:connector-curvature="0" /><path
           d="M 40.937,429.906 C 40.382,429.508 40,428.969 39.764,428.378 l 6.602,-3.301 c 4.841,2.794 19.36,11.176 33.391,19.277 l -11.005,5.502 C 53.453,438.883 40.937,429.906 40.937,429.906"
           style="fill:#ffffff;fill-opacity:1;fill-rule:nonzero;stroke:none"
           id="path33519"
           inkscape:connector-curvature="0" /><path
           d="m 88.112,230.093 c -1.066,-0.652 -1.655,-1.788 -1.655,-2.953 0,-0.601 0.157,-1.21 0.486,-1.763 0.967,-1.626 3.062,-2.175 4.701,-1.228 0,0 12.854,7.422 33.579,19.386 H 110.105 C 96.304,235.1 88.112,230.093 88.112,230.093"
           style="fill:#ffffff;fill-opacity:1;fill-rule:nonzero;stroke:none"
           id="path33521"
           inkscape:connector-curvature="0" /><path
           d="m 80.251,408.133 30.787,-15.393 v 10e-4 l -30.787,15.393 z"
           style="fill:#ffffff;fill-opacity:1;fill-rule:nonzero;stroke:none"
           id="path33523"
           inkscape:connector-curvature="0" /><path
           d="m 36.773,393.898 8.333,-4.166 c 4.026,2.324 8.525,4.922 13.358,7.712 l -9.095,4.548 c -4.5,-2.891 -8.786,-5.646 -12.596,-8.094"
           style="fill:#ffffff;fill-opacity:1;fill-rule:nonzero;stroke:none"
           id="path33525"
           inkscape:connector-curvature="0" /><path
           d="m 67.714,378.428 9.932,-4.966 c 4.341,2.506 8.806,5.083 13.358,7.712 l -10.579,5.29 c -4.229,-2.673 -8.495,-5.37 -12.711,-8.036"
           style="fill:#ffffff;fill-opacity:1;fill-rule:nonzero;stroke:none"
           id="path33527"
           inkscape:connector-curvature="0" /><path
           d="m 70.519,233.91 c -1.07,-0.651 -1.663,-1.789 -1.663,-2.957 0,-0.6 0.156,-1.208 0.484,-1.761 0.966,-1.629 3.062,-2.177 4.702,-1.231 0,0 10.116,5.842 26.977,15.574 H 86.362 C 76.434,237.503 70.519,233.91 70.519,233.91"
           style="fill:#ffffff;fill-opacity:1;fill-rule:nonzero;stroke:none"
           id="path33529"
           inkscape:connector-curvature="0" /><path
           d="m 500.695,233.884 -9.403,4.701 c -4.293,-2.479 -8.759,-5.058 -13.354,-7.71 l 10.077,-5.037 c 4.333,2.749 8.587,5.448 12.68,8.046"
           style="fill:#ffffff;fill-opacity:1;fill-rule:nonzero;stroke:none"
           id="path33531"
           inkscape:connector-curvature="0" /><path
           d="m 65.161,235.16 c 0,0 4.293,2.478 11.726,6.772 l -14.264,-7.133 c 0.832,-0.2 1.739,-0.1 2.538,0.361"
           style="fill:#ffffff;fill-opacity:1;fill-rule:nonzero;stroke:none"
           id="path33533"
           inkscape:connector-curvature="0" /><path
           d="m 409.452,372.239 59.322,29.661 c 10e-4,0.001 0.004,0.002 0.005,0.003 l -59.328,-29.664 z"
           style="fill:#ffffff;fill-opacity:1;fill-rule:nonzero;stroke:none"
           id="path33535"
           inkscape:connector-curvature="0" /><path
           d="m 488.854,239.805 -7.461,3.73 h -23.758 c -0.776,-0.448 -1.553,-0.896 -2.327,-1.344 l 20.825,-10.413 c 4.329,2.731 8.581,5.414 12.721,8.027"
           style="fill:#ffffff;fill-opacity:1;fill-rule:nonzero;stroke:none"
           id="path33537"
           inkscape:connector-curvature="0" /><path
           d="m 104.159,225.589 c -1.065,-0.652 -1.654,-1.788 -1.654,-2.952 0,-0.602 0.158,-1.21 0.487,-1.764 0.318,-0.536 0.765,-0.941 1.271,-1.227 l 25.589,12.793 c 5.547,3.204 11.999,6.928 19.219,11.096 h -15.583 c -18.136,-11.097 -29.329,-17.946 -29.329,-17.946"
           style="fill:#ffffff;fill-opacity:1;fill-rule:nonzero;stroke:none"
           id="path33539"
           inkscape:connector-curvature="0" /><path
           d="m 454.754,242.467 c 0.571,0.356 1.144,0.713 1.716,1.068 h -3.852 z"
           style="fill:#ffffff;fill-opacity:1;fill-rule:nonzero;stroke:none"
           id="path33541"
           inkscape:connector-curvature="0" /><path
           d="m 121.07,196.973 c -1.064,-0.652 -1.652,-1.786 -1.652,-2.951 0,-0.602 0.158,-1.211 0.487,-1.764 0.121,-0.204 0.26,-0.391 0.412,-0.559 l 40.637,20.318 c 16.046,9.264 35.555,20.527 54.593,31.518 h -18.48 C 152.415,216.178 121.07,196.973 121.07,196.973"
           style="fill:#ffffff;fill-opacity:1;fill-rule:nonzero;stroke:none"
           id="path33543"
           inkscape:connector-curvature="0" /><path
           d="m 216.393,375.352 c -1.796,-1.037 -3.595,-2.075 -5.392,-3.113 h 5.392 z"
           style="fill:#ffffff;fill-opacity:1;fill-rule:nonzero;stroke:none"
           id="path33545"
           inkscape:connector-curvature="0" /><path
           d="m 345.096,372.239 h 11.957 c 31.149,19.061 61.924,37.894 87.325,53.438 l -99.282,-49.641 z"
           style="fill:#ffffff;fill-opacity:1;fill-rule:nonzero;stroke:none"
           id="path33547"
           inkscape:connector-curvature="0" /><path
           d="m 209.962,372.239 c 2.063,1.302 4.132,2.608 6.198,3.912 l -10.565,5.284 c -5.208,-3.006 -10.532,-6.081 -15.928,-9.196 z"
           style="fill:#ffffff;fill-opacity:1;fill-rule:nonzero;stroke:none"
           id="path33549"
           inkscape:connector-curvature="0" /><path
           d="m 187.686,372.239 c 5.378,3.452 10.698,6.867 15.894,10.202 l -11.594,5.797 c -4.763,-2.75 -9.54,-5.508 -14.264,-8.236 4.506,2.856 9.038,5.73 13.553,8.592 l -11.872,5.936 c -5.025,-2.901 -10.091,-5.826 -15.155,-8.75 4.759,3.071 9.526,6.148 14.255,9.2 l -27.911,13.956 c -3.303,-1.907 -6.617,-3.82 -9.931,-5.733 3.11,2.013 6.222,4.027 9.324,6.036 L 80.376,444.044 C 69.03,436.35 57.627,428.619 49.84,423.34 l 8.322,-4.161 c 4.467,2.578 8.992,5.191 11.994,6.925 -3.289,-2.128 -7.228,-4.677 -11.266,-7.29 l 8.972,-4.485 c 2.511,1.447 4.879,2.816 6.952,4.013 -2.122,-1.364 -4.318,-2.775 -6.555,-4.212 l 10.24,-5.119 c 9.084,5.244 18.627,10.754 28.044,16.19 -8.848,-5.743 -17.732,-11.511 -26.292,-17.067 l 30.787,-15.393 c 2.283,1.318 4.568,2.638 6.853,3.956 -2.146,-1.389 -4.291,-2.778 -6.434,-4.165 l 40.585,-20.293 z"
           style="fill:#ffffff;fill-opacity:1;fill-rule:nonzero;stroke:none"
           id="path33551"
           inkscape:connector-curvature="0" /><path
           d="m 92.646,380.353 c -4.261,-2.758 -8.45,-5.47 -12.533,-8.114 h 28.761 z"
           style="fill:#ffffff;fill-opacity:1;fill-rule:nonzero;stroke:none"
           id="path33553"
           inkscape:connector-curvature="0" /><path
           d="m 216.393,243.229 c -11.298,-6.826 -22.813,-13.783 -33.52,-20.252 l 33.52,16.759 z"
           style="fill:#ffffff;fill-opacity:1;fill-rule:nonzero;stroke:none"
           id="path33555"
           inkscape:connector-curvature="0" /><path
           d="m 152.042,372.239 -40.585,20.293 -10e-4,-10e-4 40.585,-20.292 z"
           style="fill:#ffffff;fill-opacity:1;fill-rule:nonzero;stroke:none"
           id="path33557"
           inkscape:connector-curvature="0" /><path
           d="m 519.81,450.959 c 0,0 -9.513,-5.492 -25.312,-14.613 l 28.959,14.48 c -1.061,0.711 -2.47,0.814 -3.647,0.133"
           style="fill:#ffffff;fill-opacity:1;fill-rule:nonzero;stroke:none"
           id="path33559"
           inkscape:connector-curvature="0" /><path
           d="m 546.701,440.863 -23.838,-11.918 -0.005,-0.003 z"
           style="fill:#ffffff;fill-opacity:1;fill-rule:nonzero;stroke:none"
           id="path33561"
           inkscape:connector-curvature="0" /><path
           d="m 546.903,434.841 c 1.075,0.649 1.669,1.791 1.669,2.962 0,0.598 -0.154,1.204 -0.479,1.756 -0.344,0.58 -0.834,1.015 -1.392,1.304 L 522.858,428.942 C 501.565,416.649 465.679,395.93 424.645,372.239 h 18.646 c 44.165,26.686 103.612,62.602 103.612,62.602"
           style="fill:#ffffff;fill-opacity:1;fill-rule:nonzero;stroke:none"
           id="path33563"
           inkscape:connector-curvature="0" /><path
           d="m 548.564,406.222 c -0.964,1.632 -3.062,2.184 -4.704,1.236 0,0 -21.878,-12.63 -51.555,-29.765 l 56.398,28.2 c -0.05,0.109 -0.076,0.224 -0.139,0.329"
           style="fill:#ffffff;fill-opacity:1;fill-rule:nonzero;stroke:none"
           id="path33565"
           inkscape:connector-curvature="0" /><path
           d="m 447.792,412.993 c 49.952,30.582 86.338,52.859 86.338,52.859 1.064,0.651 1.651,1.787 1.651,2.952 0,0.601 -0.156,1.21 -0.486,1.763 -0.09,0.152 -0.198,0.284 -0.307,0.416 L 491.704,449.34 C 458.898,430.4 409.244,401.732 358.162,372.239 h 8.121 z"
           style="fill:#ffffff;fill-opacity:1;fill-rule:nonzero;stroke:none"
           id="path33567"
           inkscape:connector-curvature="0" /><path
           d="m 80.251,408.134 30.787,-15.393"
           style="fill:none;stroke:#110f0d;stroke-width:0.75;stroke-linecap:round;stroke-linejoin:round;stroke-miterlimit:4;stroke-dasharray:none;stroke-opacity:1"
           id="path33569"
           inkscape:connector-curvature="0" /><path
           d="M 546.701,440.863 522.858,428.942"
           style="fill:none;stroke:#110f0d;stroke-width:0.75;stroke-linecap:round;stroke-linejoin:round;stroke-miterlimit:4;stroke-dasharray:none;stroke-opacity:1"
           id="path33571"
           inkscape:connector-curvature="0" /><path
           d="m 49.84,423.34 8.322,-4.161"
           style="fill:none;stroke:#110f0d;stroke-width:0.75;stroke-linecap:round;stroke-linejoin:round;stroke-miterlimit:4;stroke-dasharray:none;stroke-opacity:1"
           id="path33573"
           inkscape:connector-curvature="0" /><path
           d="M 468.774,401.9 409.452,372.239"
           style="fill:none;stroke:#110f0d;stroke-width:0.75;stroke-linecap:round;stroke-linejoin:round;stroke-miterlimit:4;stroke-dasharray:none;stroke-opacity:1"
           id="path33575"
           inkscape:connector-curvature="0" /><path
           d="m 46.366,425.077 -6.602,3.301"
           style="fill:none;stroke:#110f0d;stroke-width:0.75;stroke-linecap:round;stroke-linejoin:round;stroke-miterlimit:4;stroke-dasharray:none;stroke-opacity:1"
           id="path33577"
           inkscape:connector-curvature="0" /><path
           d="m 78.499,409.011 -10.24,5.119"
           style="fill:none;stroke:#110f0d;stroke-width:0.75;stroke-linecap:round;stroke-linejoin:round;stroke-miterlimit:4;stroke-dasharray:none;stroke-opacity:1"
           id="path33579"
           inkscape:connector-curvature="0" /><path
           d="m 67.862,414.329 -8.972,4.485"
           style="fill:none;stroke:#110f0d;stroke-width:0.75;stroke-linecap:round;stroke-linejoin:round;stroke-miterlimit:4;stroke-dasharray:none;stroke-opacity:1"
           id="path33581"
           inkscape:connector-curvature="0" /><path
           d="m 152.042,372.239 -40.585,20.293"
           style="fill:none;stroke:#110f0d;stroke-width:0.75;stroke-linecap:round;stroke-linejoin:round;stroke-miterlimit:4;stroke-dasharray:none;stroke-opacity:1"
           id="path33583"
           inkscape:connector-curvature="0" /><path
           d="m 39.495,427.094 c 0,-0.643 0.179,-1.293 0.551,-1.871 1,-1.549 3.038,-2.042 4.635,-1.12 0,0 0.603,0.348 1.685,0.973 l -6.602,3.302 c -0.164,-0.411 -0.269,-0.842 -0.269,-1.284"
           style="fill:#d21d2c;fill-opacity:1;fill-rule:nonzero;stroke:none"
           id="path33585"
           inkscape:connector-curvature="0" /><path
           d="m 543.387,440.794 c 0,0 -7.558,-4.364 -20.524,-11.849 l 23.838,11.918 c -1.012,0.523 -2.255,0.542 -3.314,-0.069"
           style="fill:#d21d2c;fill-opacity:1;fill-rule:nonzero;stroke:none"
           id="path33587"
           inkscape:connector-curvature="0" /><path
           d="m 61.469,395.941 18.397,-9.197 c 3.982,2.298 7.879,4.549 11.539,6.662 -3.585,-2.266 -7.267,-4.594 -10.98,-6.942 l 10.579,-5.29 c 6.555,3.784 13.28,7.667 20.034,11.566 l -30.787,15.393 c -6.506,-4.224 -12.819,-8.321 -18.782,-12.192"
           style="fill:#d21d2c;fill-opacity:1;fill-rule:nonzero;stroke:none"
           id="path33589"
           inkscape:connector-curvature="0" /><path
           d="m 381.226,372.239 c 23.42,14.339 46.126,28.241 66.566,40.754 l -81.509,-40.754 z"
           style="fill:#d21d2c;fill-opacity:1;fill-rule:nonzero;stroke:none"
           id="path33591"
           inkscape:connector-curvature="0" /><path
           d="m 498.475,220.608 -9.116,4.558 c -6.568,-3.793 -13.575,-7.838 -20.034,-11.568 l 10.638,-5.321 c 6.455,4.301 12.831,8.547 18.512,12.331"
           style="fill:#d21d2c;fill-opacity:1;fill-rule:nonzero;stroke:none"
           id="path33593"
           inkscape:connector-curvature="0" /><path
           d="m 488.015,225.838 -10.077,5.037 c -6.504,-3.755 -13.244,-7.646 -20.034,-11.567 l 11.085,-5.542 c 6.314,4.005 12.745,8.088 19.026,12.072"
           style="fill:#d21d2c;fill-opacity:1;fill-rule:nonzero;stroke:none"
           id="path33595"
           inkscape:connector-curvature="0" /><path
           d="m 49.369,401.992 9.095,-4.548 c 6.215,3.587 12.982,7.494 20.035,11.567 l -10.24,5.119 c -6.219,-3.996 -12.746,-8.191 -18.89,-12.138"
           style="fill:#d21d2c;fill-opacity:1;fill-rule:nonzero;stroke:none"
           id="path33597"
           inkscape:connector-curvature="0" /><path
           d="m 409.451,372.239 59.328,29.664 c 43.95,26.927 74.669,45.749 74.669,45.749 1.064,0.652 1.652,1.787 1.652,2.952 0,0.6 -0.158,1.21 -0.487,1.764 -0.967,1.625 -3.061,2.172 -4.699,1.226 0,0 -46.739,-26.984 -61.986,-35.787 8.908,5.337 45.386,27.193 45.386,27.193 1.081,0.647 1.681,1.793 1.681,2.969 0,0.595 -0.155,1.199 -0.477,1.749 -0.273,0.463 -0.641,0.828 -1.061,1.108 l -28.959,-14.48 C 469.206,421.745 427.796,397.837 383.459,372.239 Z"
           style="fill:#d21d2c;fill-opacity:1;fill-rule:nonzero;stroke:none"
           id="path33599"
           inkscape:connector-curvature="0" /><path
           d="m 409.45,243.535 47.597,-23.798 c 6.451,4.071 12.847,8.105 19.086,12.041 l -20.825,10.413 c -4.637,-2.676 -9.258,-5.343 -13.81,-7.972 4.395,2.734 8.824,5.493 13.256,8.248 l -2.136,1.068 z"
           style="fill:#d21d2c;fill-opacity:1;fill-rule:nonzero;stroke:none"
           id="path33601"
           inkscape:connector-curvature="0" /><path
           d="m 40.073,406.64 7.756,-3.879 c 5.842,3.374 13.43,7.755 20.033,11.567 l -8.972,4.486 C 51.992,414.352 44.812,409.706 40.073,406.64"
           style="fill:#d21d2c;fill-opacity:1;fill-rule:nonzero;stroke:none"
           id="path33603"
           inkscape:connector-curvature="0" /><path
           d="m 111.834,215.416 c -1.064,-0.65 -1.653,-1.787 -1.653,-2.951 0,-0.602 0.157,-1.21 0.486,-1.763 0.967,-1.628 3.061,-2.175 4.7,-1.228 0,0 31.783,18.35 38.3,22.113 -8.915,-5.343 -45.408,-27.207 -45.408,-27.207 -1.08,-0.648 -1.681,-1.793 -1.681,-2.968 0,-0.598 0.154,-1.199 0.479,-1.751 0.031,-0.054 0.074,-0.097 0.109,-0.149 l 48.443,24.222 c 10.143,5.856 21.696,12.528 34.298,19.801 h -32.143 c -27.981,-17.131 -45.93,-28.119 -45.93,-28.119"
           style="fill:#d21d2c;fill-opacity:1;fill-rule:nonzero;stroke:none"
           id="path33605"
           inkscape:connector-curvature="0" /><path
           d="m 39.974,416.651 c -0.984,-0.668 -1.518,-1.755 -1.518,-2.865 0,-0.628 0.172,-1.263 0.528,-1.832 0.988,-1.578 3.047,-2.089 4.659,-1.159 0,0 7.18,4.146 14.519,8.384 l -8.322,4.16 c -6.006,-4.071 -9.866,-6.688 -9.866,-6.688"
           style="fill:#d21d2c;fill-opacity:1;fill-rule:nonzero;stroke:none"
           id="path33607"
           inkscape:connector-curvature="0" /><path
           d="m 494.79,207.849 c 1.652,0.954 2.219,3.067 1.265,4.721 -0.954,1.653 -3.069,2.22 -4.723,1.266 0,0 -4.884,-2.819 -10.435,-6.024 l 7.41,-3.706 z"
           style="fill:#d21d2c;fill-opacity:1;fill-rule:nonzero;stroke:none"
           id="path33609"
           inkscape:connector-curvature="0" /><path
           d="m 152.041,372.239 -40.585,20.292 c -6.337,-4.102 -12.644,-8.186 -18.81,-12.178 l 16.228,-8.114 H 129.6 c 2.887,1.667 5.781,3.338 8.673,5.008 -2.586,-1.67 -5.175,-3.34 -7.759,-5.008 z"
           style="fill:#d21d2c;fill-opacity:1;fill-rule:nonzero;stroke:none"
           id="path33611"
           inkscape:connector-curvature="0" /><path
           d="m 107.692,219.646 c 0,0 8.197,4.733 22.16,12.793 l -25.589,-12.793 c 1.032,-0.585 2.33,-0.635 3.429,0"
           style="fill:#d21d2c;fill-opacity:1;fill-rule:nonzero;stroke:none"
           id="path33613"
           inkscape:connector-curvature="0" /><path
           d="M 539.928,372.239 H 525.504 C 513.935,365.56 498.571,356.69 480.915,346.497 h 16.59 c 16.617,10.084 32.263,19.578 42.423,25.742"
           style="fill:#ffffff;fill-opacity:1;fill-rule:nonzero;stroke:none"
           id="path33615"
           inkscape:connector-curvature="0" /><path
           d="m 242.133,258.781 c -8.111,-4.9 -16.856,-10.183 -25.74,-15.552 v -3.493 -16.464 c 8.192,4.73 16.823,9.712 25.74,14.863 z"
           style="fill:#ffffff;fill-opacity:1;fill-rule:nonzero;stroke:none"
           id="path33617"
           inkscape:connector-curvature="0" /><path
           d="m 538.297,257.743 c 1.037,0.658 1.604,1.778 1.604,2.923 0,0.609 -0.16,1.229 -0.499,1.788 -0.975,1.609 -3.057,2.145 -4.686,1.203 0,0 -14.486,-8.364 -34.851,-20.122 h 16.041 c 13.26,8.414 22.391,14.208 22.391,14.208"
           style="fill:#ffffff;fill-opacity:1;fill-rule:nonzero;stroke:none"
           id="path33619"
           inkscape:connector-curvature="0" /><path
           d="m 345.096,146.193 v 11.091 c -9.322,-5.882 -18.037,-11.381 -25.741,-16.24 v -9.713 c 7.603,4.391 16.337,9.432 25.741,14.862"
           style="fill:#ffffff;fill-opacity:1;fill-rule:nonzero;stroke:none"
           id="path33621"
           inkscape:connector-curvature="0" /><path
           d="m 567.118,354.749 c 1.062,0.652 1.648,1.786 1.648,2.949 0,0.602 -0.157,1.211 -0.488,1.766 -0.966,1.623 -3.06,2.169 -4.698,1.224 0,0 -11.863,-6.85 -24.579,-14.191 h 14.688 c 8.486,5.214 13.429,8.252 13.429,8.252"
           style="fill:#ffffff;fill-opacity:1;fill-rule:nonzero;stroke:none"
           id="path33623"
           inkscape:connector-curvature="0" /><path
           d="m 319.362,127.012 c -0.003,-0.001 -0.004,-0.005 -0.007,-0.006 v -5.814 c 1.056,-0.674 2.433,-0.762 3.589,-0.094 0,0 8.553,4.939 22.152,12.79 v 9.452 c -15.04,-9.544 -25.734,-16.328 -25.734,-16.328"
           style="fill:#ffffff;fill-opacity:1;fill-rule:nonzero;stroke:none"
           id="path33625"
           inkscape:connector-curvature="0" /><path
           d="m 560.765,360.336 c 1.074,0.649 1.671,1.791 1.671,2.964 0,0.596 -0.155,1.201 -0.482,1.752 -0.963,1.634 -3.062,2.185 -4.704,1.237 0,0 -13.646,-7.878 -34.281,-19.792 h 14.871 c 11.884,7.174 22.925,13.839 22.925,13.839"
           style="fill:#ffffff;fill-opacity:1;fill-rule:nonzero;stroke:none"
           id="path33627"
           inkscape:connector-curvature="0" /><path
           d="m 558.974,372.239 h -14.63 c -12.259,-7.076 -28.07,-16.205 -44.586,-25.742 h 17.271 c 17.524,10.755 32.21,19.768 41.945,25.742"
           style="fill:#ffffff;fill-opacity:1;fill-rule:nonzero;stroke:none"
           id="path33629"
           inkscape:connector-curvature="0" /><path
           d="m 494.77,243.535 c 16.62,10.486 31.046,19.589 40.796,25.739 h -15.048 c -13.09,-7.558 -28.728,-16.586 -39.924,-23.049 10.818,6.655 24.895,15.311 37.475,23.049 h -15.853 c -13.605,-7.854 -29.124,-16.813 -44.581,-25.739 h 23.758 z"
           style="fill:#ffffff;fill-opacity:1;fill-rule:nonzero;stroke:none"
           id="path33631"
           inkscape:connector-curvature="0" /><path
           d="M 128.727,269.274 C 111.624,258.884 96.782,249.866 86.362,243.535 h 14.657 c 11.892,6.866 27.142,15.671 44.581,25.739 z"
           style="fill:#ffffff;fill-opacity:1;fill-rule:nonzero;stroke:none"
           id="path33633"
           inkscape:connector-curvature="0" /><path
           d="m 319.355,346.497 h 58.995 c 14.304,8.765 28.421,17.413 42.013,25.742 h -10.911 -10e-4 -25.992 c -12.931,-7.467 -26.11,-15.074 -39.213,-22.638 12.373,7.573 24.772,15.165 36.98,22.638 h -14.943 -8.121 c -6.526,-3.768 -13.075,-7.549 -19.615,-11.324 6.158,3.768 12.339,7.551 18.506,11.324 h -11.957 v 3.797 2.425 c -5.976,-3.451 -11.965,-6.908 -17.935,-10.354 5.973,3.65 11.96,7.31 17.935,10.962 v 13.367 c -2.303,-1.33 -4.604,-2.657 -6.892,-3.979 2.283,1.388 4.583,2.785 6.892,4.188 v 12.12 c -8.538,-4.93 -17.155,-9.904 -25.741,-14.861 z"
           style="fill:#ffffff;fill-opacity:1;fill-rule:nonzero;stroke:none"
           id="path33635"
           inkscape:connector-curvature="0" /><path
           d="m 242.133,392.543 v 9.987 c -7.736,-4.467 -16.448,-9.497 -25.74,-14.861 v -11.372 c 8.852,5.587 17.645,11.137 25.74,16.246"
           style="fill:#ffffff;fill-opacity:1;fill-rule:nonzero;stroke:none"
           id="path33637"
           inkscape:connector-curvature="0" /><path
           d="m 55.301,259.211 c -1.044,-0.654 -1.618,-1.778 -1.618,-2.929 0,-0.607 0.161,-1.223 0.497,-1.781 0.972,-1.613 3.058,-2.152 4.689,-1.21 0,0 15.78,9.111 27.683,15.983 H 71.312 C 61.48,263.095 55.301,259.211 55.301,259.211"
           style="fill:#ffffff;fill-opacity:1;fill-rule:nonzero;stroke:none"
           id="path33639"
           inkscape:connector-curvature="0" /><path
           d="m 72.024,260.313 c -1.08,-0.648 -1.68,-1.792 -1.68,-2.968 0,-0.597 0.154,-1.199 0.478,-1.75 0.962,-1.636 3.064,-2.191 4.708,-1.241 0,0 9.949,5.744 25.845,14.92 H 86.98 c -7.158,-4.289 -14.956,-8.961 -14.956,-8.961"
           style="fill:#ffffff;fill-opacity:1;fill-rule:nonzero;stroke:none"
           id="path33641"
           inkscape:connector-curvature="0" /><path
           d="m 65.615,243.535 h 14.052 c 10.606,6.124 26.292,15.181 44.581,25.739 H 107.816 C 87.745,257.033 72.474,247.72 65.615,243.535"
           style="fill:#ffffff;fill-opacity:1;fill-rule:nonzero;stroke:none"
           id="path33643"
           inkscape:connector-curvature="0" /><path
           d="m 216.393,209.649 v -9.578 c 8.01,4.625 16.641,9.609 25.74,14.861 v 10.266 c -7.65,-4.621 -16.586,-10.018 -25.74,-15.549"
           style="fill:#ffffff;fill-opacity:1;fill-rule:nonzero;stroke:none"
           id="path33645"
           inkscape:connector-curvature="0" /><path
           d="m 216.393,220.262 v -9.844 c 9.234,5.33 18.241,10.532 25.74,14.86 v 10.671 c -8.988,-5.478 -17.637,-10.75 -25.74,-15.687"
           style="fill:#ffffff;fill-opacity:1;fill-rule:nonzero;stroke:none"
           id="path33647"
           inkscape:connector-curvature="0" /><path
           d="m 27.441,364.457 c -1.052,-0.654 -1.633,-1.783 -1.633,-2.94 0,-0.605 0.159,-1.219 0.492,-1.773 0.971,-1.619 3.06,-2.162 4.695,-1.217 0,0 10.34,5.969 23.75,13.712 H 39.972 c -4.681,-2.907 -12.531,-7.782 -12.531,-7.782"
           style="fill:#ffffff;fill-opacity:1;fill-rule:nonzero;stroke:none"
           id="path33649"
           inkscape:connector-curvature="0" /><path
           d="m 54.204,269.191 c 0,-0.606 0.16,-1.219 0.493,-1.776 0.971,-1.617 3.059,-2.158 4.694,-1.215 0,0 1.942,1.122 5.326,3.074 H 54.215 c -0.001,-0.028 -0.011,-0.055 -0.011,-0.083"
           style="fill:#ffffff;fill-opacity:1;fill-rule:nonzero;stroke:none"
           id="path33651"
           inkscape:connector-curvature="0" /><path
           d="m 17.24,367.229 c -1.018,-0.662 -1.575,-1.769 -1.575,-2.904 0,-0.615 0.164,-1.239 0.509,-1.802 0.98,-1.598 3.054,-2.124 4.677,-1.187 0,0 12.23,7.06 18.887,10.903 h -14.78 c -4.905,-3.184 -7.718,-5.01 -7.718,-5.01"
           style="fill:#ffffff;fill-opacity:1;fill-rule:nonzero;stroke:none"
           id="path33653"
           inkscape:connector-curvature="0" /><path
           d="m 18.124,347.077 c -0.263,-0.166 -0.494,-0.362 -0.695,-0.58 h 13.514 c 9.573,5.528 25.753,14.869 44.586,25.742 H 57.925 C 36.202,358.505 18.124,347.077 18.124,347.077"
           style="fill:#ffffff;fill-opacity:1;fill-rule:nonzero;stroke:none"
           id="path33655"
           inkscape:connector-curvature="0" /><path
           d="m 216.393,170.104 v -8.591 c 7.781,4.491 17.642,10.184 25.74,14.859 v 9.529 c -10.083,-6.188 -18.837,-11.561 -25.74,-15.797"
           style="fill:#ffffff;fill-opacity:1;fill-rule:nonzero;stroke:none"
           id="path33657"
           inkscape:connector-curvature="0" /><path
           d="m 216.393,137.726 v -7.864 c 0.325,0.076 0.647,0.184 0.95,0.36 0,0 10.339,5.968 24.79,14.312 v 8.753 c -10.418,-6.298 -21.006,-12.698 -25.74,-15.561"
           style="fill:#ffffff;fill-opacity:1;fill-rule:nonzero;stroke:none"
           id="path33659"
           inkscape:connector-curvature="0" /><path
           d="m 236.59,129.033 c -1.069,-0.649 -1.661,-1.789 -1.661,-2.956 0,-0.599 0.155,-1.207 0.483,-1.76 0.965,-1.629 3.063,-2.178 4.703,-1.231 0,0 0.704,0.407 2.018,1.166 v 8.153 c -3.464,-2.106 -5.543,-3.372 -5.543,-3.372"
           style="fill:#ffffff;fill-opacity:1;fill-rule:nonzero;stroke:none"
           id="path33661"
           inkscape:connector-curvature="0" /><path
           d="m 229.816,135.075 c -1.069,-0.65 -1.662,-1.788 -1.662,-2.956 0,-0.6 0.155,-1.207 0.483,-1.76 0.966,-1.63 3.063,-2.177 4.703,-1.231 0,0 3.412,1.97 8.793,5.075 v 8.361 c -7.477,-4.544 -12.317,-7.489 -12.317,-7.489"
           style="fill:#ffffff;fill-opacity:1;fill-rule:nonzero;stroke:none"
           id="path33663"
           inkscape:connector-curvature="0" /><path
           d="m 319.355,166.358 v -10.641 c 5.166,2.98 10.116,5.839 14.541,8.393 -4.41,-2.712 -9.367,-5.76 -14.541,-8.942 v -10.017 c 8.019,4.628 16.678,9.628 25.741,14.861 v 22.365 c -8.84,-5.502 -17.515,-10.899 -25.741,-16.019"
           style="fill:#ffffff;fill-opacity:1;fill-rule:nonzero;stroke:none"
           id="path33665"
           inkscape:connector-curvature="0" /><path
           d="m 221.376,491.504 c 1.018,0.661 1.574,1.769 1.574,2.902 0,0.616 -0.164,1.24 -0.51,1.803 -0.978,1.599 -3.052,2.125 -4.675,1.188 0,0 -0.494,-0.285 -1.372,-0.792 v -8.335 c 3.187,2.068 4.983,3.234 4.983,3.234"
           style="fill:#ffffff;fill-opacity:1;fill-rule:nonzero;stroke:none"
           id="path33667"
           inkscape:connector-curvature="0" /><path
           d="m 216.393,184.008 v -9.095 c 7.638,4.408 16.305,9.413 25.74,14.86 v 9.854 c -8.837,-5.362 -17.632,-10.7 -25.74,-15.619"
           style="fill:#ffffff;fill-opacity:1;fill-rule:nonzero;stroke:none"
           id="path33669"
           inkscape:connector-curvature="0" /><path
           d="m 216.393,147.354 v -8.318 c 5.978,3.451 16.003,9.237 25.74,14.861 v 9.273 c -10.798,-6.636 -19.666,-12.085 -25.74,-15.816"
           style="fill:#ffffff;fill-opacity:1;fill-rule:nonzero;stroke:none"
           id="path33671"
           inkscape:connector-curvature="0" /><path
           d="m 216.393,195.563 v -9.766 c 8.193,4.729 16.956,9.788 25.74,14.86 V 211.4 c -9.199,-5.658 -17.846,-10.98 -25.74,-15.837"
           style="fill:#ffffff;fill-opacity:1;fill-rule:nonzero;stroke:none"
           id="path33673"
           inkscape:connector-curvature="0" /><path
           d="m 319.355,210.621 v -41.785 c 8.323,4.805 16.961,9.792 25.741,14.861 v 42.741 c -8.559,-5.258 -17.19,-10.565 -25.741,-15.817"
           style="fill:#ffffff;fill-opacity:1;fill-rule:nonzero;stroke:none"
           id="path33675"
           inkscape:connector-curvature="0" /><path
           d="m 216.393,160.533 v -8.275 c 5.835,3.368 14.739,8.509 25.74,14.861 v 8.952 c -8.202,-4.95 -18.212,-10.993 -25.74,-15.538"
           style="fill:#ffffff;fill-opacity:1;fill-rule:nonzero;stroke:none"
           id="path33677"
           inkscape:connector-curvature="0" /><path
           d="m 242.133,420.837 v 9.912 c -7.628,-4.404 -16.344,-9.437 -25.74,-14.862 v -11.368 c 9.211,5.839 17.938,11.372 25.74,16.318"
           style="fill:#ffffff;fill-opacity:1;fill-rule:nonzero;stroke:none"
           id="path33679"
           inkscape:connector-curvature="0" /><path
           d="m 242.133,436.044 v 16.759 c -3.607,-2.083 -7.066,-4.08 -8.279,-4.781 1.586,0.981 4.744,2.933 8.279,5.118 v 8.648 c -6.586,-3.803 -15.411,-8.898 -25.74,-14.862 v -27.494 c 9.885,6.38 18.703,12.069 25.74,16.612"
           style="fill:#ffffff;fill-opacity:1;fill-rule:nonzero;stroke:none"
           id="path33681"
           inkscape:connector-curvature="0" /><path
           d="m 516.705,372.239 h -15.93 c -14.698,-8.486 -30.224,-17.45 -41.744,-24.099 11.21,6.771 25.807,15.589 39.898,24.099 h -16.072 c -14.005,-8.086 -29.294,-16.912 -44.586,-25.742 h 36.601 c 15.892,9.779 30.164,18.561 41.833,25.742"
           style="fill:#ffffff;fill-opacity:1;fill-rule:nonzero;stroke:none"
           id="path33683"
           inkscape:connector-curvature="0" /><path
           d="m 228.983,481.503 c 1.052,0.653 1.632,1.782 1.632,2.939 0,0.605 -0.157,1.218 -0.491,1.773 -0.97,1.62 -3.061,2.162 -4.694,1.218 0,0 -3.326,-1.92 -9.037,-5.218 v -8.533 c 4.63,2.877 12.59,7.821 12.59,7.821"
           style="fill:#ffffff;fill-opacity:1;fill-rule:nonzero;stroke:none"
           id="path33685"
           inkscape:connector-curvature="0" /><path
           d="m 242.133,407.188 v 10.003 c -7.642,-4.413 -16.412,-9.475 -25.74,-14.861 v -11.664 c 9.35,6.001 18.062,11.593 25.74,16.522"
           style="fill:#ffffff;fill-opacity:1;fill-rule:nonzero;stroke:none"
           id="path33687"
           inkscape:connector-curvature="0" /><path
           d="m 345.096,405.896 v 20.635 c -8.355,-4.824 -16.955,-9.79 -25.741,-14.862 v -21.473 c 8.58,5.233 17.201,10.491 25.741,15.7"
           style="fill:#ffffff;fill-opacity:1;fill-rule:nonzero;stroke:none"
           id="path33689"
           inkscape:connector-curvature="0" /><path
           d="m 235.51,464.61 c 1.019,0.661 1.577,1.771 1.577,2.905 0,0.616 -0.165,1.239 -0.508,1.801 -0.979,1.6 -3.055,2.127 -4.678,1.19 0,0 -6.255,-3.611 -15.508,-8.954 v -9.318 c 11.755,7.611 19.117,12.376 19.117,12.376"
           style="fill:#ffffff;fill-opacity:1;fill-rule:nonzero;stroke:none"
           id="path33691"
           inkscape:connector-curvature="0" /><path
           d="m 240.637,479.571 c 0.773,0.489 1.283,1.234 1.496,2.055 v 1.717 c -0.082,0.323 -0.204,0.639 -0.384,0.94 -0.974,1.61 -3.058,2.146 -4.688,1.205 0,0 -13.695,-7.907 -20.668,-11.933 v -9.311 c 14.158,8.952 24.244,15.327 24.244,15.327"
           style="fill:#ffffff;fill-opacity:1;fill-rule:nonzero;stroke:none"
           id="path33693"
           inkscape:connector-curvature="0" /><path
           d="M 152.214,269.274 C 135.5,259.059 121.04,250.219 110.105,243.535 h 15.118 c 12.398,7.158 27.617,15.944 44.582,25.739 z"
           style="fill:#ffffff;fill-opacity:1;fill-rule:nonzero;stroke:none"
           id="path33695"
           inkscape:connector-curvature="0" /><path
           d="m 436.819,346.497 c 14.391,8.77 28.702,17.491 42.242,25.742 h -35.375 c -3.082,-1.78 -6.063,-3.5 -8.9,-5.138 2.753,1.664 5.596,3.381 8.505,5.138 h -18.646 c -14.368,-8.294 -29.366,-16.953 -44.587,-25.742 z"
           style="fill:#ffffff;fill-opacity:1;fill-rule:nonzero;stroke:none"
           id="path33697"
           inkscape:connector-curvature="0" /><path
           d="m 345.096,243.535 h 64.354 43.168 3.852 c 14.203,8.838 28.364,17.651 41.364,25.739 h -69.688 c -0.708,-0.409 -1.416,-0.816 -2.121,-1.224 0.663,0.408 1.328,0.816 1.993,1.224 H 319.355 v -9.758 c 5.22,3.013 10.453,6.034 15.68,9.052 -5.224,-3.214 -10.459,-6.435 -15.68,-9.648 v -24.562 c 9.708,5.604 19.514,11.267 29.272,16.901 -9.725,-5.969 -19.551,-11.998 -29.272,-17.965 v -21.591 c 8.557,4.941 17.193,9.926 25.741,14.862 v 13.17 z"
           style="fill:#ffffff;fill-opacity:1;fill-rule:nonzero;stroke:none"
           id="path33699"
           inkscape:connector-curvature="0" /><path
           d="M 80.113,372.239 C 64.558,362.167 50.581,353.119 40.353,346.497 h 15.919 c 1.103,0.638 2.082,1.202 2.88,1.663 -0.656,-0.405 -1.584,-0.979 -2.69,-1.663 h 28.554 c 13.664,7.89 29.011,16.751 44.584,25.742 h -20.726 z"
           style="fill:#ffffff;fill-opacity:1;fill-rule:nonzero;stroke:none"
           id="path33701"
           inkscape:connector-curvature="0" /><path
           d="m 133.488,243.535 h 15.583 c 12.762,7.368 27.898,16.108 44.581,25.739 h -18.103 c -16.112,-9.859 -30.498,-18.662 -42.061,-25.739"
           style="fill:#ffffff;fill-opacity:1;fill-rule:nonzero;stroke:none"
           id="path33703"
           inkscape:connector-curvature="0" /><path
           d="m 242.133,269.274 h -3.056 c -14.841,-9.091 -28.988,-17.76 -42.01,-25.739 h 18.48 c 9.116,5.265 18.12,10.463 26.586,15.35 z"
           style="fill:#ffffff;fill-opacity:1;fill-rule:nonzero;stroke:none"
           id="path33705"
           inkscape:connector-curvature="0" /><path
           d="m 199.804,269.274 c -15.508,-9.494 -29.741,-18.209 -42.04,-25.739 h 32.143 c 13.776,7.954 28.802,16.63 44.582,25.739 z"
           style="fill:#ffffff;fill-opacity:1;fill-rule:nonzero;stroke:none"
           id="path33707"
           inkscape:connector-curvature="0" /><path
           d="m 242.133,346.497 v 20.586 c -9.054,-5.227 -18.105,-10.452 -27.085,-15.638 8.915,5.605 18.118,11.388 27.085,17.024 v 11.222 c -2.351,-1.357 -4.643,-2.68 -6.832,-3.943 2.133,1.327 4.433,2.76 6.832,4.253 v 10.213 c -8.192,-4.73 -16.933,-9.777 -25.74,-14.862 v -3.113 h -5.392 c -4.084,-2.358 -8.16,-4.71 -12.177,-7.03 3.659,2.309 7.389,4.664 11.138,7.03 h -20.295 c -6.511,-3.76 -13.114,-7.57 -19.704,-11.376 5.925,3.803 11.857,7.611 17.723,11.376 h -35.644 -0.001 -21.527 C 116.651,363.294 102.94,354.444 90.625,346.497 h 19.412 c 7.167,4.138 14.44,8.338 21.531,12.432 -6.525,-4.137 -13.105,-8.309 -19.609,-12.432 h 21.559 c 4.176,2.412 8.374,4.835 12.568,7.256 -3.772,-2.421 -7.545,-4.843 -11.305,-7.256 z"
           style="fill:#ffffff;fill-opacity:1;fill-rule:nonzero;stroke:none"
           id="path33709"
           inkscape:connector-curvature="0" /><path
           d="m 242.248,482.497 c 0,0.283 -0.043,0.566 -0.115,0.846 v -1.717 c 0.075,0.284 0.115,0.576 0.115,0.871"
           style="fill:#d21d2c;fill-opacity:1;fill-rule:nonzero;stroke:none"
           id="path33711"
           inkscape:connector-curvature="0" /><path
           d="m 279.405,416.068 c 1.041,0.657 1.613,1.778 1.613,2.927 0,0.609 -0.162,1.225 -0.499,1.783 -0.972,1.613 -3.058,2.149 -4.687,1.207 0,0 -13.549,-7.822 -33.699,-19.455 v -9.987 c 21.012,13.262 37.272,23.525 37.272,23.525"
           style="fill:#d21d2c;fill-opacity:1;fill-rule:nonzero;stroke:none"
           id="path33713"
           inkscape:connector-curvature="0" /><path
           d="m 291.248,410.589 c 1.05,0.655 1.63,1.782 1.63,2.938 0,0.605 -0.159,1.219 -0.493,1.775 -0.969,1.618 -3.059,2.159 -4.693,1.216 0,0 -20.11,-11.611 -45.559,-26.304 v -10.213 c 20.66,12.867 49.115,30.588 49.115,30.588"
           style="fill:#d21d2c;fill-opacity:1;fill-rule:nonzero;stroke:none"
           id="path33715"
           inkscape:connector-curvature="0" /><path
           d="m 548.782,277.612 c 1.041,0.657 1.613,1.779 1.613,2.927 0,0.608 -0.162,1.226 -0.499,1.783 -0.972,1.614 -3.058,2.15 -4.687,1.207 0,0 -10.94,-6.315 -24.691,-14.255 h 15.048 c 8.302,5.238 13.216,8.338 13.216,8.338"
           style="fill:#d21d2c;fill-opacity:1;fill-rule:nonzero;stroke:none"
           id="path33717"
           inkscape:connector-curvature="0" /><path
           d="m 549.094,288.358 c 1.061,0.652 1.646,1.787 1.646,2.948 0,0.602 -0.157,1.213 -0.487,1.767 -0.969,1.623 -3.063,2.169 -4.698,1.223 0,0 -18.473,-10.664 -43.339,-25.022 h 15.853 c 16.858,10.37 31.025,19.084 31.025,19.084"
           style="fill:#d21d2c;fill-opacity:1;fill-rule:nonzero;stroke:none"
           id="path33719"
           inkscape:connector-curvature="0" /><path
           d="m 259.395,447.183 c 1.022,0.66 1.584,1.771 1.584,2.907 0,0.616 -0.166,1.238 -0.508,1.8 -0.868,1.421 -2.585,1.891 -4.1,1.347 0.745,0.667 1.234,1.548 1.234,2.514 0,0.601 -0.156,1.209 -0.486,1.763 -0.967,1.627 -3.06,2.173 -4.7,1.227 0,0 -5.286,-3.052 -10.286,-5.938 v -16.759 c 10.672,6.886 17.262,11.139 17.262,11.139"
           style="fill:#d21d2c;fill-opacity:1;fill-rule:nonzero;stroke:none"
           id="path33721"
           inkscape:connector-curvature="0" /><path
           d="m 276.232,442.457 c 1.038,0.656 1.608,1.776 1.608,2.923 0,0.609 -0.162,1.227 -0.5,1.786 -0.975,1.61 -3.057,2.145 -4.686,1.204 0,0 -12.086,-6.978 -30.521,-17.621 v -9.912 c 20.142,12.769 34.099,21.62 34.099,21.62"
           style="fill:#d21d2c;fill-opacity:1;fill-rule:nonzero;stroke:none"
           id="path33723"
           inkscape:connector-curvature="0" /><path
           d="m 273.502,427.321 c 1.026,0.66 1.59,1.774 1.59,2.913 0,0.614 -0.164,1.234 -0.505,1.796 -0.977,1.603 -3.056,2.133 -4.682,1.195 0,0 -11.238,-6.489 -27.772,-16.034 v -10.003 c 18.824,12.081 31.369,20.133 31.369,20.133"
           style="fill:#d21d2c;fill-opacity:1;fill-rule:nonzero;stroke:none"
           id="path33725"
           inkscape:connector-curvature="0" /><path
           d="m 258.456,463.23 c 1.056,0.653 1.639,1.784 1.639,2.944 0,0.603 -0.157,1.215 -0.489,1.77 -0.969,1.621 -3.06,2.165 -4.696,1.221 0,0 -4.713,-2.723 -12.777,-7.377 v -8.648 c 7.343,4.538 16.323,10.09 16.323,10.09"
           style="fill:#d21d2c;fill-opacity:1;fill-rule:nonzero;stroke:none"
           id="path33727"
           inkscape:connector-curvature="0" /><path
           d="M 319.355,258.92 C 292.196,242.209 265.397,225.717 242.133,211.4 v -10.743 c 12.11,6.991 24.255,14.004 34.992,20.202 -10.604,-6.434 -22.834,-13.855 -34.992,-21.232 v -9.854 c 22.541,13.014 49.464,28.558 77.222,44.585 z"
           style="fill:#d21d2c;fill-opacity:1;fill-rule:nonzero;stroke:none"
           id="path33729"
           inkscape:connector-curvature="0" /><path
           d="m 242.133,185.901 v -9.529 c 4.65,2.685 8.72,5.035 11.469,6.622 -2.687,-1.623 -6.784,-4.095 -11.469,-6.923 v -8.952 c 20.566,11.873 48.443,27.968 77.222,44.584 v 21.591 C 291.019,215.903 263.58,199.063 242.133,185.901"
           style="fill:#d21d2c;fill-opacity:1;fill-rule:nonzero;stroke:none"
           id="path33731"
           inkscape:connector-curvature="0" /><path
           d="m 43.135,315.85 c -1.023,-0.661 -1.583,-1.772 -1.583,-2.908 0,-0.616 0.163,-1.237 0.507,-1.799 0.978,-1.601 3.054,-2.13 4.679,-1.192 0,0 30.504,17.611 63.299,36.546 H 90.625 C 63.471,328.974 43.135,315.85 43.135,315.85"
           style="fill:#d21d2c;fill-opacity:1;fill-rule:nonzero;stroke:none"
           id="path33733"
           inkscape:connector-curvature="0" /><path
           d="m 497.834,269.274 c 32.716,20.358 58.058,36.129 58.058,36.129 1.052,0.655 1.631,1.782 1.631,2.938 0,0.605 -0.158,1.218 -0.491,1.775 -0.971,1.618 -3.06,2.159 -4.694,1.216 0,0 -38.606,-22.29 -53.837,-31.084 20.236,12.31 63.736,38.77 63.736,38.77 1.071,0.649 1.661,1.789 1.661,2.956 0,0.599 -0.155,1.207 -0.482,1.759 -0.966,1.63 -3.062,2.179 -4.703,1.232 0,0 -44.226,-25.534 -64.647,-37.322 26.915,16.362 76.642,46.594 76.642,46.594 1.069,0.65 1.661,1.789 1.661,2.957 0,0.598 -0.156,1.206 -0.484,1.76 -0.966,1.629 -3.061,2.178 -4.702,1.232 0,0 -41.315,-23.854 -56.495,-32.619 12.752,7.71 50.718,30.663 50.718,30.663 1.076,0.651 1.67,1.792 1.67,2.963 0,0.597 -0.155,1.203 -0.48,1.756 -0.964,1.631 -3.063,2.181 -4.705,1.234 0,0 -68.381,-39.478 -129.745,-74.909 z"
           style="fill:#d21d2c;fill-opacity:1;fill-rule:nonzero;stroke:none"
           id="path33735"
           inkscape:connector-curvature="0" /><path
           d="m 242.133,163.17 v -9.273 c 8.789,5.074 17.333,10.006 22.419,12.943 -4.926,-2.979 -13.612,-8.228 -22.419,-13.553 v -8.753 c 19.033,10.988 45.201,26.097 64.301,37.124 -18.508,-11.253 -47.813,-29.07 -64.301,-39.094 v -8.361 c 14.258,8.234 42.425,24.495 58.209,33.609 -15.818,-9.622 -45.835,-27.88 -58.209,-35.407 v -8.153 c 8.045,4.644 39.334,22.71 77.222,44.584 v 41.785 C 290.609,192.956 262.834,175.889 242.133,163.17"
           style="fill:#d21d2c;fill-opacity:1;fill-rule:nonzero;stroke:none"
           id="path33737"
           inkscape:connector-curvature="0" /><path
           d="m 242.133,368.469 c 33.319,20.94 63.393,39.843 63.393,39.843 1.044,0.656 1.618,1.779 1.618,2.93 0,0.608 -0.16,1.223 -0.496,1.781 -0.973,1.614 -3.059,2.152 -4.69,1.209 0,0 -33.893,-19.568 -59.825,-34.541 z"
           style="fill:#d21d2c;fill-opacity:1;fill-rule:nonzero;stroke:none"
           id="path33739"
           inkscape:connector-curvature="0" /><path
           d="m 265.457,122.016 c -1.062,-0.654 -1.648,-1.787 -1.648,-2.949 0,-0.602 0.159,-1.213 0.489,-1.768 0.968,-1.622 3.06,-2.168 4.698,-1.223 0,0 20.807,12.012 50.359,29.075 v 10.017 C 294.87,140.107 265.457,122.016 265.457,122.016"
           style="fill:#d21d2c;fill-opacity:1;fill-rule:nonzero;stroke:none"
           id="path33741"
           inkscape:connector-curvature="0" /><path
           d="M 111.959,346.497 C 70.922,320.48 33.068,296.481 33.068,296.481 c -1.037,-0.657 -1.607,-1.776 -1.607,-2.921 0,-0.612 0.162,-1.23 0.501,-1.789 0.974,-1.609 3.056,-2.144 4.685,-1.203 0,0 46.874,27.062 96.871,55.929 z"
           style="fill:#d21d2c;fill-opacity:1;fill-rule:nonzero;stroke:none"
           id="path33743"
           inkscape:connector-curvature="0" /><path
           d="m 317.759,124.089 c 0,-0.61 0.16,-1.228 0.499,-1.787 0.284,-0.467 0.666,-0.833 1.097,-1.11 v 5.814 c -1.03,-0.658 -1.596,-1.774 -1.596,-2.917"
           style="fill:#d21d2c;fill-opacity:1;fill-rule:nonzero;stroke:none"
           id="path33745"
           inkscape:connector-curvature="0" /><path
           d="m 16.513,344.15 c 0,-0.608 0.162,-1.226 0.499,-1.785 0.974,-1.61 3.057,-2.145 4.688,-1.204 0,0 3.4,1.963 9.243,5.336 H 17.429 c -0.596,-0.645 -0.916,-1.488 -0.916,-2.347"
           style="fill:#d21d2c;fill-opacity:1;fill-rule:nonzero;stroke:none"
           id="path33747"
           inkscape:connector-curvature="0" /><path
           d="m 319.355,131.331 v 9.713 c -19.386,-12.231 -32.352,-20.41 -32.352,-20.41 -1.04,-0.656 -1.612,-1.779 -1.612,-2.927 0,-0.608 0.161,-1.226 0.498,-1.784 0.239,-0.4 0.55,-0.732 0.904,-0.992 h 4.155 c 2.002,1.156 12.804,7.392 28.407,16.4"
           style="fill:#d21d2c;fill-opacity:1;fill-rule:nonzero;stroke:none"
           id="path33749"
           inkscape:connector-curvature="0" /><path
           d="m 23.055,335.297 c -1.02,-0.659 -1.579,-1.769 -1.579,-2.903 0,-0.616 0.165,-1.24 0.509,-1.802 0.979,-1.6 3.054,-2.128 4.677,-1.191 0,0 19.884,11.481 29.61,17.096 H 40.353 c -10.697,-6.924 -17.298,-11.2 -17.298,-11.2"
           style="fill:#d21d2c;fill-opacity:1;fill-rule:nonzero;stroke:none"
           id="path33751"
           inkscape:connector-curvature="0" /><path
           d="m 34.533,332.942 c -1.057,-0.654 -1.64,-1.785 -1.64,-2.944 0,-0.605 0.158,-1.215 0.49,-1.77 0.645,-1.08 1.787,-1.679 2.961,-1.682 -0.207,-0.127 -4.833,-2.957 -4.833,-2.957 -1.065,-0.651 -1.654,-1.788 -1.654,-2.952 0,-0.602 0.157,-1.21 0.487,-1.764 0.967,-1.626 3.061,-2.174 4.699,-1.227 0,0 21.249,12.268 49.973,28.851 H 56.462 C 49.321,342.083 34.533,332.942 34.533,332.942"
           style="fill:#d21d2c;fill-opacity:1;fill-rule:nonzero;stroke:none"
           id="path33753"
           inkscape:connector-curvature="0" /><path
           d="m 260.103,129.488 c -1.05,-0.655 -1.631,-1.782 -1.631,-2.938 0,-0.606 0.16,-1.218 0.493,-1.774 0.971,-1.62 3.058,-2.162 4.693,-1.217 0,0 30.444,17.576 55.697,32.158 v 10.641 c -33.294,-20.717 -59.252,-36.87 -59.252,-36.87"
           style="fill:#d21d2c;fill-opacity:1;fill-rule:nonzero;stroke:none"
           id="path33755"
           inkscape:connector-curvature="0" /><path
           d="m 319.355,269.274 h 108.663 c 49.444,30.384 101.711,62.499 125.671,77.223 h -14.688 c -10.243,-5.913 -21.038,-12.145 -26.637,-15.378 5.202,3.141 15.628,9.434 25.476,15.378 h -14.871 c -26.56,-15.335 -64.702,-37.355 -100.232,-57.867 32.951,20.22 67.042,41.144 94.292,57.867 h -17.271 c -15.637,-9.027 -31.905,-18.419 -46.396,-26.787 13.265,8.05 29.1,17.659 44.143,26.787 h -16.59 c -28.735,-16.589 -63.524,-36.674 -97.829,-56.479 31.967,19.67 64.288,39.559 91.786,56.479 h -36.601 c -9.273,-5.352 -18.544,-10.706 -27.535,-15.895 8.618,5.252 17.366,10.582 26.083,15.895 h -56.761 c -9.809,-5.662 -19.708,-11.377 -29.593,-17.085 9.313,5.707 18.639,11.421 27.885,17.085 h -58.995 v 43.407 c -3,-1.733 -5.998,-3.464 -8.986,-5.189 2.986,1.822 5.985,3.65 8.986,5.481 v 21.473 C 294.56,397.353 268.321,382.204 242.133,367.083 V 346.497 H 134.781 C 87.362,316.06 42.582,287.316 42.582,287.316 c -1.027,-0.658 -1.59,-1.772 -1.59,-2.911 0,-0.615 0.163,-1.235 0.505,-1.796 0.977,-1.603 3.055,-2.134 4.681,-1.196 0,0 44.347,25.603 81.232,46.9 -36.791,-23.222 -80.629,-50.889 -80.629,-50.889 -1.04,-0.657 -1.612,-1.779 -1.612,-2.928 0,-0.608 0.161,-1.225 0.498,-1.783 0.974,-1.612 3.058,-2.149 4.688,-1.208 0,0 38.089,21.991 61.445,35.476 -20.503,-12.767 -55.966,-34.853 -55.966,-34.853 -1.025,-0.639 -1.592,-1.728 -1.619,-2.854 h 10.502 c 13.373,7.722 49.643,28.664 81.06,46.803 C 118.73,299.078 89.053,280.425 71.312,269.274 h 15.24 c 5.188,2.996 9.643,5.569 11.728,6.772 -1.37,-0.82 -6.171,-3.699 -11.3,-6.772 h 14.395 c 28.659,16.547 76.662,44.261 120.621,69.64 -40.582,-24.751 -83.119,-50.694 -114.18,-69.64 h 16.432 c 27.02,15.6 59.7,34.469 90.023,51.976 C 185.628,303.847 154.6,284.995 128.727,269.274 H 145.6 c 34.279,19.79 76.997,44.454 119.238,68.842 -39.827,-24.345 -80.406,-49.148 -112.624,-68.842 h 17.591 c 30.31,17.5 66.201,38.221 101.597,58.658 -33.286,-20.37 -67.279,-41.171 -95.853,-58.658 h 18.103 c 32.237,18.613 70.235,40.551 107.994,62.351 -35.45,-21.703 -71.132,-43.55 -101.842,-62.351 h 34.685 c 25.236,14.571 52.407,30.257 79.524,45.913 -25.513,-15.63 -51.107,-31.313 -74.936,-45.913 h 3.056 v -10.389 c 1.298,0.75 2.588,1.494 3.859,2.228 -1.267,-0.765 -2.555,-1.546 -3.859,-2.332 v -20.646 c 21.792,12.581 45.275,26.138 68.12,39.328 -22.767,-13.875 -46.432,-28.298 -68.12,-41.514 v -10.671 c 1.021,0.59 2.016,1.164 2.978,1.719 -0.969,-0.585 -1.963,-1.184 -2.978,-1.799 v -10.266 c 23.548,13.595 50.203,28.985 77.222,44.584 z"
           style="fill:#d21d2c;fill-opacity:1;fill-rule:nonzero;stroke:none"
           id="path33757"
           inkscape:connector-curvature="0" /></g></g></g></svg>