<svg xmlns="http://www.w3.org/2000/svg" viewBox="0 0 4096 3715.41"><defs><style>.a{fill:gold;}.b{fill:#0057b8;}</style></defs><path class="a" d="M835.69,2649.29q-30.08-56.11-55.1-115.2c-72.28-170.89-108.93-352.37-108.93-539.38a1399,1399,0,0,1,15.61-209.09H183.45C330.6,2073.44,558.07,2361.75,835.69,2649.29Z"/><path class="b" d="M4061,791.67c-114.94-447.56-476.41-731-973.7-784.73A1171.82,1171.82,0,0,0,2961.09,0c-432.28,0-739.85,252.44-915.69,597.46C1861.69,237.37,1548.12,3.82,1090.91,3.83q-45.39,0-92.7,3.11c-454.74,30-845.38,301.9-968.46,832-72.86,313.84-8.22,630,153.7,946.71H687.27A1388.13,1388.13,0,0,1,1517.91,718c170.89-72.28,352.37-108.93,539.38-108.93S2425.78,645.73,2596.67,718a1385.44,1385.44,0,0,1,830.64,1067.61h478.41C4077.74,1444.15,4142.57,1109.1,4061,791.67Z"/><path class="a" d="M3334,2534.09q-21.3,50.38-46.35,98.63c263.77-282.59,477-567,618.09-847.1H3427.31a1399,1399,0,0,1,15.61,209.09C3442.92,2181.72,3406.27,2363.2,3334,2534.09Z"/><path class="b" d="M1945.8,837.38C1426.47,887,1005.73,1279.72,913.48,1785.62H1945.8Z"/><path class="a" d="M913.48,1785.62a1165,1165,0,0,0-18.85,209.09c0,280.48,99.84,538.09,265.84,739.15l785.33-785.33V1785.62Z"/><path class="a" d="M2168.78,2263.86V3152c237-22.66,453.55-116.77,627.66-260.52Z"/><path class="a" d="M2168.78,1785.62v162.91l785.32,785.33c166-201.06,265.84-458.67,265.84-739.15a1165,1165,0,0,0-18.84-209.09Z"/><path class="b" d="M2168.78,837.38v948.24H3201.1C3108.85,1279.72,2688.11,887,2168.78,837.38Z"/><path class="a" d="M2057.29,3380.34c-187,0-368.49-36.65-539.38-108.94q-12.95-5.47-25.74-11.21c177.78,152.28,363.7,304.09,553.23,455.22,199.56-148.62,392.19-300.3,574.19-454-7.61,3.38-15.24,6.72-22.92,10C2425.78,3343.69,2244.3,3380.34,2057.29,3380.34Z"/><path class="a" d="M1945.8,3152V2263.86l-627.66,627.66C1492.24,3035.27,1708.76,3129.38,1945.8,3152Z"/></svg>